<?xml version="1.0" encoding="UTF-8"?>
<svg width="300" height="200" viewBox="0 0 300 200" xmlns="http://www.w3.org/2000/svg">
  <!-- Burger -->
  <g transform="translate(30, 40)">
    <path d="M10,60 C10,55 10,50 15,50 C20,50 90,50 95,50 C100,50 100,55 100,60 L10,60 Z" fill="#C19A6B" stroke="#000" stroke-width="1"/>
    <path d="M15,50 C15,48 15,45 20,45 C25,45 85,45 90,45 C95,45 95,48 95,50 L15,50 Z" fill="#FF6347" stroke="#000" stroke-width="1"/>
    <path d="M15,45 C15,40 15,35 20,35 C25,35 85,35 90,35 C95,35 95,40 95,45 L15,45 Z" fill="#90EE90" stroke="#000" stroke-width="1"/>
    <path d="M15,35 C15,33 15,30 20,30 C25,30 85,30 90,30 C95,30 95,33 95,35 L15,35 Z" fill="#F0E68C" stroke="#000" stroke-width="1"/>
    <path d="M20,30 C20,25 20,20 25,20 C30,20 80,20 85,20 C90,20 90,25 90,30 L20,30 Z" fill="#C19A6B" stroke="#000" stroke-width="1"/>
    <!-- Red "X" over burger -->
    <path d="M10,20 L100,60 M10,60 L100,20" stroke="#FF0000" stroke-width="3"/>
  </g>

  <!-- Soda -->
  <g transform="translate(160, 30)">
    <path d="M40,20 L45,100 C45,110 55,110 55,100 L60,20 L40,20 Z" fill="#A52A2A" stroke="#000" stroke-width="1"/>
    <path d="M35,20 C35,15 35,10 50,10 C65,10 65,15 65,20 L35,20 Z" fill="#D3D3D3" stroke="#000" stroke-width="1"/>
    <!-- Bubbles -->
    <circle cx="45" cy="50" r="2" fill="#FFFFFF"/>
    <circle cx="52" cy="40" r="2" fill="#FFFFFF"/>
    <circle cx="48" cy="60" r="2" fill="#FFFFFF"/>
    <circle cx="55" cy="70" r="2" fill="#FFFFFF"/>
    <circle cx="50" cy="80" r="2" fill="#FFFFFF"/>
    <!-- Red "X" over soda -->
    <path d="M30,10 L70,110 M30,110 L70,10" stroke="#FF0000" stroke-width="3"/>
  </g>
  
  <!-- Donut -->
  <g transform="translate(230, 80)">
    <circle cx="30" cy="30" r="25" fill="#FFB6C1" stroke="#000" stroke-width="1"/>
    <circle cx="30" cy="30" r="10" fill="#FFFFFF" stroke="#000" stroke-width="1"/>
    <!-- Sprinkles -->
    <rect x="20" y="15" width="8" height="2" fill="#FF69B4" transform="rotate(30, 20, 15)"/>
    <rect x="40" y="20" width="8" height="2" fill="#00BFFF" transform="rotate(-20, 40, 20)"/>
    <rect x="35" y="45" width="8" height="2" fill="#FFD700" transform="rotate(10, 35, 45)"/>
    <rect x="15" y="40" width="8" height="2" fill="#32CD32" transform="rotate(-45, 15, 40)"/>
    <rect x="30" y="10" width="8" height="2" fill="#9370DB" transform="rotate(60, 30, 10)"/>
    <!-- Red "X" over donut -->
    <path d="M5,5 L55,55 M5,55 L55,5" stroke="#FF0000" stroke-width="3"/>
  </g>
  
  <!-- French Fries -->
  <g transform="translate(50, 110)">
    <path d="M20,20 L30,60 L60,60 L70,20 Z" fill="#FFD700" stroke="#000" stroke-width="1"/>
    <!-- Fries -->
    <rect x="25" y="25" width="5" height="35" fill="#FFA500" stroke="#000" stroke-width="0.5"/>
    <rect x="35" y="25" width="5" height="35" fill="#FFA500" stroke="#000" stroke-width="0.5"/>
    <rect x="45" y="25" width="5" height="35" fill="#FFA500" stroke="#000" stroke-width="0.5"/>
    <rect x="55" y="25" width="5" height="35" fill="#FFA500" stroke="#000" stroke-width="0.5"/>
    <rect x="65" y="25" width="5" height="35" fill="#FFA500" stroke="#000" stroke-width="0.5"/>
    <!-- Red "X" over fries -->
    <path d="M15,20 L75,60 M15,60 L75,20" stroke="#FF0000" stroke-width="3"/>
  </g>
  
  <!-- Title -->
  <text x="150" y="190" font-family="Arial" font-size="14" text-anchor="middle" fill="#000">Foods to Limit or Avoid</text>
</svg>