<?xml version="1.0" encoding="UTF-8"?>
<svg width="300" height="200" viewBox="0 0 300 200" xmlns="http://www.w3.org/2000/svg">
  <!-- Salmon -->
  <g transform="translate(20, 30)">
    <path d="M80,20 C100,10 120,15 135,25 C150,35 160,35 170,30 C180,25 185,15 190,10 C195,5 200,5 205,10 C210,15 205,25 200,30 C195,35 190,40 180,45 C170,50 160,50 150,45 C140,40 120,40 100,45 C80,50 60,50 40,40 C20,30 10,15 20,10 C30,5 60,10 80,20 Z" fill="#FA8072" stroke="#000" stroke-width="1"/>
    <ellipse cx="170" cy="25" rx="3" ry="3" fill="#000"/>
  </g>
  
  <!-- Avocado -->
  <g transform="translate(220, 40)">
    <ellipse cx="30" cy="60" rx="30" ry="45" fill="#2E8B57" stroke="#000" stroke-width="1"/>
    <ellipse cx="30" cy="60" rx="15" ry="20" fill="#A0522D"/>
  </g>
  
  <!-- Nuts -->
  <g transform="translate(50, 120)">
    <ellipse cx="15" cy="15" rx="15" ry="12" fill="#D2B48C" stroke="#000" stroke-width="1"/>
    <ellipse cx="45" cy="20" rx="14" ry="12" fill="#DEB887" stroke="#000" stroke-width="1" transform="rotate(-15, 45, 20)"/>
    <ellipse cx="75" cy="15" rx="15" ry="12" fill="#CD853F" stroke="#000" stroke-width="1"/>
  </g>
  
  <!-- Leafy Greens -->
  <g transform="translate(160, 110)">
    <path d="M20,10 C30,0 60,5 70,15 C80,25 75,40 65,45 C55,50 35,45 25,35 C15,25 10,20 20,10 Z" fill="#006400" stroke="#000" stroke-width="1"/>
    <path d="M30,5 C40,-5 70,0 80,10 C90,20 85,35 75,40 C65,45 45,40 35,30 C25,20 20,15 30,5 Z" fill="#228B22" stroke="#000" stroke-width="1" transform="translate(10, 15) rotate(30, 50, 20)"/>
  </g>
  
  <!-- Title -->
  <text x="150" y="190" font-family="Arial" font-size="14" text-anchor="middle" fill="#000">Heart Healthy Foods</text>
</svg>